<svg width="24" height="24" viewBox="0 0 24 24" fill="none" xmlns="http://www.w3.org/2000/svg">
<path d="M14.2002 1C14.9295 1 15.6298 1.29 16.1455 1.80566L19.0664 4.72656C19.5821 5.24229 19.8721 5.94253 19.8721 6.67188V11.9824C19.872 12.3966 19.5362 12.7324 19.1221 12.7324C18.708 12.7322 18.3721 12.3965 18.3721 11.9824V7.61621H15.0059C14.0395 7.61608 13.256 6.83253 13.2559 5.86621V2.5H4.79688C4.59077 2.50007 4.25201 2.57511 3.98242 2.78809C3.74628 2.97482 3.50009 3.31401 3.5 3.99512V20.1689C3.5001 20.39 3.57228 20.7385 3.76758 21.0098C3.93548 21.2429 4.22294 21.4648 4.79688 21.4648H10.9365C11.3504 21.4651 11.6864 21.8009 11.6865 22.2148C11.6865 22.6288 11.3505 22.9646 10.9365 22.9648H4.79688C3.73399 22.9648 2.99676 22.5052 2.55078 21.8857C2.13249 21.3047 2.00009 20.63 2 20.1689V3.99512C2.0001 2.88086 2.43654 2.09726 3.05273 1.61035C3.63554 1.15004 4.32086 1.00006 4.79688 1H14.2002ZM19.1201 13.333C19.3553 13.2917 19.6136 13.288 19.8672 13.3174C20.36 13.3746 20.968 13.5717 21.415 14.0186C21.6137 14.2174 21.8984 14.6206 22.0381 15.1035C22.1859 15.615 22.1921 16.3321 21.6074 16.917L16.1182 22.4062L15.9238 22.458L15.9219 22.459C15.9206 22.4593 15.918 22.4604 15.916 22.4609C15.9117 22.4621 15.905 22.4629 15.8975 22.4648C15.8816 22.469 15.8583 22.4753 15.8301 22.4824C15.7727 22.4969 15.6908 22.518 15.5928 22.541C15.3973 22.5869 15.1291 22.645 14.8486 22.6943C14.5738 22.7426 14.2601 22.787 13.9814 22.7949C13.8435 22.7988 13.6847 22.7948 13.5322 22.7676C13.4192 22.7474 13.2133 22.6988 13.0283 22.5518L12.9512 22.4824L12.8828 22.4062C12.7393 22.2266 12.6869 22.026 12.6641 21.9199C12.6322 21.7714 12.6202 21.6142 12.6162 21.4727C12.6081 21.1863 12.6312 20.8588 12.6611 20.5674C12.6916 20.271 12.7315 19.9872 12.7637 19.7793C12.7798 19.675 12.7943 19.5882 12.8047 19.5273C12.8097 19.4976 12.8135 19.4737 12.8164 19.457C12.8179 19.4487 12.8195 19.4411 12.8203 19.4365C12.8207 19.4343 12.821 19.432 12.8213 19.4307V19.4287L12.8633 19.1982L18.376 13.6855C18.6066 13.4551 18.9123 13.3696 19.1201 13.333ZM14.2598 19.9238C14.2555 19.9502 14.2507 19.9789 14.2461 20.0088C14.2163 20.2014 14.1803 20.4582 14.1533 20.7207C14.1325 20.9232 14.1214 21.1171 14.1182 21.2812C14.2574 21.268 14.4191 21.2476 14.5889 21.2178C14.8323 21.175 15.0711 21.1221 15.25 21.0801C15.2844 21.072 15.3174 21.0637 15.3467 21.0566L18.7764 17.626L17.667 16.5166L14.2598 19.9238ZM19.3799 14.8096C19.3778 14.81 19.375 14.8102 19.373 14.8105L18.7275 15.4561L19.8379 16.5654L20.5469 15.8564C20.5993 15.8039 20.6133 15.7635 20.6191 15.7295C20.6267 15.6849 20.6244 15.6153 20.5967 15.5195C20.5691 15.4245 20.5227 15.3257 20.4688 15.2373C20.4131 15.1463 20.3647 15.0904 20.3535 15.0791C20.2216 14.9476 19.9764 14.8404 19.6943 14.8076C19.561 14.7922 19.4503 14.7972 19.3799 14.8096ZM9.91309 14.3018C10.327 14.302 10.6629 14.6379 10.6631 15.0518C10.6631 15.4658 10.3271 15.8015 9.91309 15.8018H6.84375C6.42954 15.8018 6.09375 15.466 6.09375 15.0518C6.09398 14.6377 6.42968 14.3018 6.84375 14.3018H9.91309ZM14.0068 10.209C14.4207 10.2094 14.7567 10.5451 14.7568 10.959C14.7568 11.373 14.4207 11.7086 14.0068 11.709H6.84375C6.42954 11.709 6.09375 11.3732 6.09375 10.959C6.09385 10.5449 6.4296 10.209 6.84375 10.209H14.0068ZM10.9365 6.11621C11.3505 6.11644 11.6865 6.45214 11.6865 6.86621C11.6865 7.28025 11.3505 7.61598 10.9365 7.61621H6.84375C6.42956 7.61621 6.09378 7.2804 6.09375 6.86621C6.09375 6.452 6.42954 6.11621 6.84375 6.11621H10.9365ZM14.7559 5.86621C14.756 6.0041 14.868 6.11608 15.0059 6.11621H18.2402C18.1805 5.99573 18.1026 5.88387 18.0059 5.78711L15.085 2.86621C14.9881 2.76933 14.8765 2.69061 14.7559 2.63086V5.86621Z" fill="black"/>
</svg>
