<svg width="24" height="24" viewBox="0 0 24 24" fill="none" xmlns="http://www.w3.org/2000/svg">
<path d="M8.65714 3.81818H15.3429V2H16.8857V3.81818H18.1714C18.6377 3.81818 19.3203 3.95273 19.9081 4.38028C20.5354 4.83643 21 5.5902 21 6.67532V19.1429C21 19.6139 20.8668 20.3033 20.4435 20.8971C19.9919 21.5307 19.2457 22 18.1714 22H5.82857C5.36227 22 4.67973 21.8655 4.09185 21.4379C3.46464 20.9818 3 20.228 3 19.1429V6.67532C3 6.20431 3.1332 5.51488 3.55647 4.92106C4.00807 4.28752 4.75429 3.81818 5.82857 3.81818H7.11429V2H8.65714V3.81818ZM4.54286 11.0909V19.1429C4.54286 19.7201 4.76393 20.0055 4.99386 20.1727C5.26311 20.3685 5.60919 20.4416 5.82857 20.4416H18.1714C18.7429 20.4416 19.0254 20.2183 19.191 19.986C19.3848 19.714 19.4571 19.3645 19.4571 19.1429V11.0909H4.54286ZM8.65714 17.5844H7.11429V16.026H8.65714V17.5844ZM12.7714 17.5844H11.2286V16.026H12.7714V17.5844ZM16.8857 17.5844H15.3429V16.026H16.8857V17.5844ZM8.65714 13.9481H7.11429V12.3896H8.65714V13.9481ZM12.7714 13.9481H11.2286V12.3896H12.7714V13.9481ZM16.8857 13.9481H15.3429V12.3896H16.8857V13.9481ZM5.82857 5.37662C5.25714 5.37662 4.97459 5.59993 4.80904 5.83218C4.61522 6.10416 4.54286 6.45373 4.54286 6.67532V9.53247H19.4571V6.67532C19.4571 6.09812 19.2361 5.81272 19.0061 5.6455C18.7369 5.44972 18.3908 5.37662 18.1714 5.37662H5.82857Z" fill="black"/>
</svg>
