<svg width="24" height="24" viewBox="0 0 24 24" fill="none" xmlns="http://www.w3.org/2000/svg">
<path d="M7.1875 13.0925C8.31113 13.0925 10.0492 13.5275 11.5236 14.4735C13.0155 15.4307 14.375 17.0112 14.375 19.3261C14.375 19.7418 14.3611 20.5516 13.6866 21.1767C13.0647 21.7529 12.0664 21.9976 10.6375 21.9976H3.7375C3.24048 21.9976 2.33284 22.0399 1.5835 21.7692C1.17786 21.6225 0.760406 21.3687 0.451465 20.9285C0.141482 20.4869 0 19.9423 0 19.3261C6.55928e-06 17.9254 0.507178 16.3558 1.69019 15.1344C2.88485 13.9009 4.69944 13.0925 7.1875 13.0925ZM16.9625 13.3893C17.9153 13.3893 19.3679 13.762 20.5989 14.5662C21.8496 15.3834 22.9999 16.7413 23 18.7312C23 19.078 22.9916 19.81 22.3902 20.3777C21.8359 20.9008 20.9651 21.1059 19.7847 21.1059H15.4599C15.972 20.5171 16.0742 19.8306 16.0944 19.3249H19.7847C20.8625 19.3249 21.1694 19.1169 21.2267 19.0628C21.2373 19.0536 21.275 19.0393 21.275 18.7312C21.2749 17.5559 20.6215 16.6885 19.6769 16.0713C18.7125 15.4412 17.5779 15.1703 16.9625 15.1703C16.2423 15.1703 15.6368 15.2707 15.1297 15.437C14.808 14.8945 14.4229 14.4082 13.9965 13.976C14.8188 13.6026 15.806 13.3893 16.9625 13.3893ZM7.1875 14.8735C5.07557 14.8735 3.72765 15.5492 2.90981 16.3936C2.08034 17.2501 1.72501 18.352 1.725 19.3261C1.725 19.6597 1.79914 19.8134 1.84854 19.8838C1.8989 19.9554 1.98508 20.028 2.154 20.089C2.45454 20.1975 2.82805 20.2145 3.27144 20.2166H10.6375C11.9686 20.2166 12.4087 19.9666 12.5343 19.8502C12.6069 19.7827 12.65 19.7011 12.65 19.3261C12.65 17.8416 11.805 16.751 10.6139 15.9866C9.40506 15.211 7.98047 14.8735 7.1875 14.8735ZM7.1875 3C7.90052 3 8.95114 3.21336 9.848 3.88008C10.7888 4.57949 11.5 5.73757 11.5 7.45256C11.5 8.18874 11.2933 9.27348 10.6476 10.1995C9.97019 11.1708 8.84854 11.9051 7.1875 11.9051C6.47448 11.9051 5.42386 11.6918 4.527 11.025C3.58622 10.3256 2.875 9.16755 2.875 7.45256C2.875 6.71638 3.08165 5.63165 3.72739 4.70566C4.40481 3.73432 5.52646 3 7.1875 3ZM16.9625 4.18735C17.5797 4.18735 18.4866 4.37149 19.2636 4.94916C20.0845 5.55953 20.7 6.56885 20.7 8.04624C20.7 8.68347 20.5216 9.61979 19.9622 10.4221C19.371 11.2696 18.3934 11.9051 16.9625 11.9051C16.3453 11.9051 15.4384 11.721 14.6614 11.1433C13.8405 10.5329 13.225 9.52363 13.225 8.04624C13.225 7.409 13.4034 6.47269 13.9628 5.67038C14.554 4.82283 15.5316 4.18735 16.9625 4.18735ZM7.1875 4.78102C6.08861 4.78102 5.48543 5.23412 5.12783 5.74691C4.73858 6.3051 4.6 7.00139 4.6 7.45256C4.6 8.58715 5.03884 9.20991 5.5355 9.57912C6.07614 9.98102 6.75052 10.1241 7.1875 10.1241C8.28639 10.1241 8.88957 9.67101 9.24717 9.15822C9.63642 8.60002 9.775 7.90373 9.775 7.45256C9.775 6.31798 9.33616 5.69521 8.8395 5.326C8.29886 4.9241 7.62448 4.78102 7.1875 4.78102ZM16.9625 5.96837C16.0936 5.96837 15.6335 6.32252 15.3622 6.71163C15.0593 7.14609 14.95 7.6941 14.95 8.04624C14.95 8.94335 15.293 9.4184 15.6699 9.69855C16.0907 10.0112 16.6214 10.1241 16.9625 10.1241C17.8314 10.1241 18.2915 9.76995 18.5628 9.38085C18.8657 8.94638 18.975 8.39837 18.975 8.04624C18.975 7.14912 18.632 6.67408 18.2551 6.39392C17.8343 6.08125 17.3036 5.96837 16.9625 5.96837Z" fill="black"/>
</svg>
