<svg width="24" height="24" viewBox="0 0 24 24" fill="none" xmlns="http://www.w3.org/2000/svg">
<rect width="24" height="24" fill="#222429"/>
<path d="M16.1338 6.16016C16.4099 5.68189 17.0217 5.51787 17.5 5.79395C17.9782 6.07009 18.1423 6.6819 17.8662 7.16016L12.7324 16.0527H15.5C16.0523 16.0527 16.5 16.5005 16.5 17.0527C16.4997 17.6048 16.0521 18.0527 15.5 18.0527H9.26758L10.1338 16.5527L16.1338 6.16016ZM14.1211 6.5127L10.3584 12.8076L10.3535 12.8154L10.3477 12.8242L7.84766 16.8242L7.55469 17.2939H4C3.44782 17.2939 3.00016 16.8461 3 16.2939C3.00016 15.7418 3.44782 15.2939 4 15.2939H6.44629L7.81641 13.1016C7.32726 13.0068 6.80997 12.8674 6.32422 12.6504C5.75672 12.3968 5.18255 12.0205 4.74902 11.4541C4.30488 10.8737 4.05279 10.15 4.05273 9.29395C4.05277 8.58378 4.17774 7.47815 4.95996 6.54492C5.76968 5.57905 7.10786 5.00008 9.09961 5H15.0264L14.1211 6.5127ZM19.5 13.5439C20.1442 13.5439 20.6191 13.8292 20.9082 14.2305C21.1697 14.5937 21.25 15.0073 21.25 15.2939C21.25 15.9382 20.9647 16.4131 20.5635 16.7021C20.2003 16.9637 19.7867 17.0439 19.5 17.0439C18.8558 17.0439 18.3809 16.7587 18.0918 16.3574C17.8303 15.9942 17.75 15.5806 17.75 15.2939C17.75 14.6497 18.0353 14.1748 18.4365 13.8857C18.7997 13.6242 19.2133 13.5439 19.5 13.5439ZM9.09961 7C7.49189 7.00007 6.80621 7.45548 6.49219 7.83008C6.15127 8.23713 6.05277 8.77834 6.05273 9.29395C6.05279 9.7347 6.17499 10.0254 6.33789 10.2383C6.51149 10.465 6.77706 10.6621 7.13965 10.8242C7.69472 11.0722 8.36085 11.1899 8.95898 11.25L11.501 7H9.09961Z" fill="white"/>
</svg>
