<svg width="24" height="24" viewBox="0 0 24 24" fill="none" xmlns="http://www.w3.org/2000/svg">
<path d="M12 2C17.5228 2 22 6.47715 22 12C22 17.5228 17.5228 22 12 22C6.47715 22 2 17.5228 2 12C2 6.47715 6.47715 2 12 2ZM12 15.75C9.9635 15.75 8.65804 16.3306 7.87012 17.0527C7.3155 17.5611 6.98804 18.1645 6.8418 18.7549C8.27239 19.849 10.0599 20.5 12 20.5C13.9341 20.5 15.7162 19.8526 17.1445 18.7646C16.8975 17.9031 16.2216 17.22 15.3105 16.7012C14.1505 16.0406 12.7784 15.75 12 15.75ZM12 3.5C7.30558 3.5 3.5 7.30558 3.5 12C3.5 14.1648 4.31108 16.1389 5.64355 17.6396C5.90542 17.0358 6.30373 16.4539 6.85645 15.9473C7.97761 14.9197 9.67286 14.25 12 14.25C13.0397 14.25 14.6673 14.6094 16.0527 15.3984C16.9614 15.9159 17.832 16.6641 18.3271 17.6738C19.6775 16.169 20.5 14.181 20.5 12C20.5 7.30558 16.6944 3.5 12 3.5ZM12 6.25C14.0711 6.25 15.75 7.92893 15.75 10C15.75 12.0711 14.0711 13.75 12 13.75C9.92893 13.75 8.25 12.0711 8.25 10C8.25 7.92893 9.92893 6.25 12 6.25ZM12 7.75C10.7574 7.75 9.75 8.75736 9.75 10C9.75 11.2426 10.7574 12.25 12 12.25C13.2426 12.25 14.25 11.2426 14.25 10C14.25 8.75736 13.2426 7.75 12 7.75Z" fill="black"/>
</svg>
